# 3ds Max Wavefront OBJ Exporter v0.97b - (c)2007 guruware
# File Created: 10.05.2017 11:33:02

#
# object Box001
#

v  -26.7252 0.0000 2.0290
v  -26.7252 0.0000 -14.9431
v  -8.7551 0.0000 -14.9431
v  -8.7551 0.0000 2.0290
v  9.2150 0.0000 -14.9431
v  9.2150 0.0000 2.0290
v  -26.7252 0.0000 -31.9153
v  -8.7551 0.0000 -31.9153
v  9.2150 0.0000 -31.9153
v  -26.7252 98.4980 2.0290
v  -8.7551 98.4980 2.0290
v  -8.7551 98.4980 -14.9431
v  -26.7252 98.4980 -14.9431
v  9.2150 98.4980 2.0290
v  9.2150 98.4980 -14.9431
v  -8.7551 98.4980 -31.9153
v  -26.7252 98.4980 -31.9153
v  9.2150 98.4980 -31.9153
v  -8.7551 44.9899 2.0290
v  -26.7252 44.9140 2.0290
v  9.2150 44.9140 2.0290
v  -26.7252 44.9140 37.5950
v  -8.7551 44.9140 37.5950
v  -8.7551 65.6653 37.5950
v  -26.7252 65.6653 37.5950
v  9.2150 44.9140 37.5950
v  9.2150 65.6653 37.5950
v  -26.7252 65.6653 2.0290
v  -8.7551 65.6653 2.0290
v  9.2150 65.6653 2.0290
v  9.2150 44.9140 -14.9431
v  9.2150 44.9140 -31.9153
v  9.2150 65.6653 -14.9431
v  9.2150 65.6653 -31.9153
v  -8.7551 44.9140 -31.9153
v  -26.7252 44.9140 -31.9153
v  -8.7551 65.6653 -31.9153
v  -26.7252 65.6653 -31.9153
v  -26.7252 44.9140 -14.9431
v  -26.7252 65.6653 -14.9431
v  -8.7551 -0.7815 25.4050
v  -8.7551 -0.7815 37.5950
v  -26.7252 -0.7815 37.5950
v  -26.7252 -0.7815 25.4050
v  9.2150 -0.7815 25.4050
v  9.2150 -0.7815 37.5950
v  9.2150 65.6653 25.4050
v  9.2150 44.9140 25.4050
v  -8.7551 65.6653 25.4050
v  -26.7252 65.6653 25.4050
v  -26.7252 44.9140 25.4050
v  -8.7551 44.9899 25.4050
# 52 vertices

vn 0.0000 -1.0000 -0.0000
vn 0.0000 1.0000 -0.0000
vn 0.0000 0.0000 1.0000
vn 1.0000 0.0000 -0.0000
vn 0.0000 0.0000 -1.0000
vn 0.0000 -0.0000 -1.0000
vn -1.0000 0.0000 -0.0000
vn 0.0042 -1.0000 -0.0000
vn -0.0042 -1.0000 -0.0000
# 9 vertex normals

vt 0.0200 0.1408 -13.7343
vt 0.0200 0.0804 13.7343
vt 0.0839 0.0804 13.7343
vt 0.0839 0.1408 13.7343
vt 0.1479 0.0804 13.7343
vt 0.1479 0.1408 -13.7343
vt 0.0200 0.0200 13.7343
vt 0.0839 0.0200 13.7343
vt 0.1479 0.0200 13.7343
vt 0.7111 0.8973 -41.8885
vt 0.7127 0.8334 -41.8885
vt 0.7731 0.8350 -41.8885
vt 0.7714 0.8989 -41.8885
vt 0.7144 0.7695 -41.8885
vt 0.7748 0.7711 -41.8885
vt 0.8335 0.8366 -41.8885
vt 0.8318 0.9005 41.8885
vt 0.8352 0.7727 -41.8885
vt 0.0292 0.9049 46.0977
vt 0.0283 0.8409 46.0977
vt 0.1883 0.8387 46.0977
vt 0.1891 0.9026 38.7720
vt 0.0275 0.7769 46.0977
vt 0.1873 0.7748 46.0977
vt 0.6961 0.3945 0.0000
vt 0.7601 0.3946 0.0000
vt 0.7600 0.4684 0.0000
vt 0.6960 0.4683 0.0000
vt 0.0096 0.3933 0.0000
vt 0.0736 0.3934 0.0000
vt 0.0735 0.4673 0.0000
vt 0.0095 0.4672 0.0000
vt 0.5943 0.8942 -41.8885
vt 0.5960 0.8303 -41.8885
vt 0.5976 0.7664 -41.8885
vt 0.2004 0.2338 0.0000
vt 0.2608 0.2339 0.0000
vt 0.2605 0.3937 0.0000
vt 0.2001 0.3936 0.0000
vt 0.3212 0.2340 0.0000
vt 0.3209 0.3938 0.0000
vt 0.2604 0.4676 0.0000
vt 0.2000 0.4675 0.0000
vt 0.3208 0.4677 0.0000
vt 0.2602 0.5844 0.0000
vt 0.1998 0.5843 0.0000
vt 0.3206 0.5845 0.0000
vt 0.3851 0.2341 0.0000
vt 0.3849 0.3940 0.0000
vt 0.4491 0.2342 0.0000
vt 0.4488 0.3941 0.0000
vt 0.3847 0.4678 0.0000
vt 0.4487 0.4679 0.0000
vt 0.3846 0.5846 0.0000
vt 0.4485 0.5847 0.0000
vt 0.5095 0.2343 0.0000
vt 0.5092 0.3942 0.0000
vt 0.5699 0.2344 0.0000
vt 0.5696 0.3943 0.0000
vt 0.5091 0.4680 0.0000
vt 0.5695 0.4681 0.0000
vt 0.5089 0.5848 0.0000
vt 0.5693 0.5849 159.2751
vt 0.7778 0.6929 13.9539
vt 0.7778 0.7363 13.9539
vt 0.7139 0.7363 13.9539
vt 0.7139 0.6929 -13.9539
vt 0.8417 0.6929 -13.9539
vt 0.8417 0.7363 13.9539
vt 0.1168 0.4674 0.0000
vt 0.1170 0.3935 0.0000
vt 0.5128 0.8281 -41.8885
vt 0.4694 0.8270 -41.8885
vt 0.4711 0.7631 -41.8885
vt 0.5145 0.7642 -41.8885
vt 0.5111 0.8921 -41.8885
vt 0.4678 0.8909 -13.5232
vt 0.6528 0.3944 0.0000
vt 0.6526 0.4682 0.0000
vt 0.2724 0.9015 46.0977
vt 0.2714 0.8376 46.0977
vt 0.2706 0.7736 46.0977
vt 0.6964 0.2319 -159.2751
vt 0.7604 0.2320 0.0000
vt 0.6530 0.2318 0.0000
vt 0.4341 0.8353 46.0977
vt 0.4350 0.8993 46.0977
vt 0.4332 0.7713 -46.0977
vt 0.0739 0.2308 0.0000
vt 0.1172 0.2309 0.0000
vt 0.0099 0.2307 0.0000
# 91 texture coords

g Box001
s 2
f 1/1/1 2/2/1 3/3/1 4/4/1 
f 4/4/1 3/3/1 5/5/1 6/6/1 
f 2/2/1 7/7/1 8/8/1 3/3/1 
f 3/3/1 8/8/1 9/9/1 5/5/1 
s 4
f 10/10/2 11/11/2 12/12/2 13/13/2 
f 11/11/2 14/14/2 15/15/2 12/12/2 
f 13/13/2 12/12/2 16/16/2 17/17/2 
f 12/12/2 15/15/2 18/18/2 16/16/2 
s 8
f 1/19/3 4/20/3 19/21/3 20/22/3 
f 4/20/3 6/23/3 21/24/3 19/21/3 
f 22/25/3 23/26/3 24/27/3 25/28/3 
f 23/29/3 26/30/3 27/31/3 24/32/3 
f 28/33/3 29/34/3 11/11/3 10/10/3 
f 29/34/3 30/35/3 14/14/3 11/11/3 
s 16
f 6/36/4 5/37/4 31/38/4 21/39/4 
f 5/37/4 9/40/4 32/41/4 31/38/4 
f 21/39/4 31/38/4 33/42/4 30/43/4 
f 31/38/4 32/41/4 34/44/4 33/42/4 
f 30/43/4 33/42/4 15/45/4 14/46/4 
f 33/42/4 34/44/4 18/47/4 15/45/4 
s 32
f 9/40/5 8/48/5 35/49/6 32/41/6 
f 8/48/5 7/50/5 36/51/6 35/49/6 
f 32/41/6 35/49/6 37/52/6 34/44/6 
f 35/49/6 36/51/6 38/53/6 37/52/6 
f 34/44/6 37/52/6 16/54/5 18/47/5 
f 37/52/6 38/53/6 17/55/5 16/54/5 
s 64
f 7/50/7 2/56/7 39/57/7 36/51/7 
f 2/56/7 1/58/7 20/59/7 39/57/7 
f 36/51/7 39/57/7 40/60/7 38/53/7 
f 39/57/7 20/59/7 28/61/7 40/60/7 
f 38/53/7 40/60/7 13/62/7 17/55/7 
f 40/60/7 28/61/7 10/63/7 13/62/7 
s off
f 41/64/1 42/65/1 43/66/1 44/67/1 
f 45/68/1 46/69/1 42/65/1 41/64/1 
f 47/70/4 27/31/4 26/30/4 48/71/4 
f 49/72/2 24/73/2 27/74/2 47/75/2 
f 50/76/2 25/77/2 24/73/2 49/72/2 
f 51/78/7 22/25/7 25/28/7 50/79/7 
f 50/79/7 28/61/7 20/59/7 51/78/7 
f 51/80/8 20/22/8 19/21/8 52/81/8 
f 52/81/9 19/21/9 21/24/9 48/82/9 
f 48/71/4 21/39/4 30/43/4 47/70/4 
f 47/75/2 30/35/2 29/34/2 49/72/2 
f 49/72/2 29/34/2 28/33/2 50/76/2 
f 23/26/3 22/25/3 43/83/3 42/84/3 
f 22/25/7 51/78/7 44/85/7 43/83/7 
f 51/80/5 52/81/5 41/86/5 44/87/5 
f 52/81/5 48/82/5 45/88/5 41/86/5 
f 48/71/4 26/30/4 46/89/4 45/90/4 
f 26/30/3 23/29/3 42/91/3 46/89/3 
# 50 polygons

