# 3ds Max Wavefront OBJ Exporter v0.97b - (c)2007 guruware
# File Created: 05.05.2017 19:40:03

#
# object Box001
#

v  -9.0452 0.0000 4.1376
v  -9.0452 0.0000 -8.9605
v  0.9028 0.0000 -8.9605
v  0.9028 0.0000 4.1376
v  10.8509 0.0000 -8.9605
v  10.8509 0.0000 4.1376
v  -9.0452 0.0000 -22.0586
v  0.9028 0.0000 -22.0586
v  10.8509 0.0000 -22.0586
v  -9.0452 56.1233 4.1376
v  0.9028 56.1233 4.1376
v  0.9028 56.1233 -8.9605
v  -9.0452 56.1233 -8.9605
v  10.8509 56.1233 4.1376
v  10.8509 56.1233 -8.9605
v  0.9028 56.1233 -22.0586
v  -9.0452 56.1233 -22.0586
v  10.8509 56.1233 -22.0586
v  0.9028 28.0616 4.1376
v  -9.0452 28.0616 4.1376
v  10.8509 28.0616 4.1376
v  10.8509 28.0616 -8.9605
v  41.4290 0.0000 -8.9605
v  41.4290 0.0000 -22.0586
v  41.4290 28.0616 -22.0586
v  41.4290 28.0616 -8.9605
v  41.4290 56.1233 -22.0586
v  41.4290 56.1233 -8.9605
v  0.9028 28.0616 -22.0586
v  10.8509 28.0616 -22.0586
v  -9.0452 28.0616 -22.0586
v  -9.0452 28.0616 -8.9605
# 32 vertices

vn 0.0000 -1.0000 -0.0000
vn 0.0000 1.0000 -0.0000
vn 0.0000 0.0000 1.0000
vn 1.0000 0.0000 -0.0000
vn 0.0000 0.0000 -1.0000
vn -1.0000 0.0000 -0.0000
# 6 vertex normals

vt 0.4682 0.7041 -11.5796
vt 0.4685 0.6329 11.5796
vt 0.5226 0.6331 11.5796
vt 0.5223 0.7043 11.5796
vt 0.5766 0.6333 11.5796
vt 0.5764 0.7045 11.5796
vt 0.4688 0.5617 11.5796
vt 0.5228 0.5619 11.5796
vt 0.5769 0.5621 11.5796
vt 0.4671 0.7367 10.2822
vt 0.5212 0.7367 -10.2822
vt 0.5212 0.8079 -10.2822
vt 0.4671 0.8079 -10.2822
vt 0.5752 0.7367 -10.2822
vt 0.5752 0.8079 -10.2822
vt 0.5212 0.8790 -10.2822
vt 0.4671 0.8790 -10.2822
vt 0.5752 0.8790 -10.2822
vt 0.0943 0.4724 -66.2235
vt 0.0949 0.4183 0.0000
vt 0.2473 0.4199 0.0000
vt 0.2468 0.4740 0.0000
vt 0.0954 0.3643 0.0000
vt 0.2479 0.3659 0.0000
vt 0.3998 0.4215 0.0000
vt 0.3992 0.4756 0.0000
vt 0.4004 0.3675 0.0000
vt 0.0962 0.2931 0.0000
vt 0.2486 0.2947 0.0000
vt 0.0979 0.1270 0.0000
vt 0.0987 0.0558 0.0000
vt 0.2511 0.0574 0.0000
vt 0.2504 0.1286 0.0000
vt 0.4011 0.2963 0.0000
vt 0.4036 0.0590 0.0000
vt 0.4029 0.1302 0.0000
vt 0.0917 0.7228 0.0000
vt 0.0922 0.6688 0.0000
vt 0.2447 0.6704 0.0000
vt 0.2441 0.7244 0.0000
vt 0.0928 0.6147 0.0000
vt 0.2453 0.6163 0.0000
vt 0.3972 0.6720 0.0000
vt 0.3966 0.7260 66.2235
vt 0.3977 0.6179 0.0000
vt 0.0935 0.5436 0.0000
vt 0.2460 0.5451 0.0000
vt 0.3985 0.5467 0.0000
vt 0.7430 0.5628 11.5796
vt 0.7428 0.6339 -11.5796
vt 0.2424 0.8906 0.0000
vt 0.0899 0.8890 0.0000
vt 0.3949 0.8922 0.0000
vt 0.7414 0.8079 10.2822
vt 0.7414 0.8790 -10.2822
# 55 texture coords

g Box001
s 2
f 1/1/1 2/2/1 3/3/1 4/4/1 
f 4/4/1 3/3/1 5/5/1 6/6/1 
f 2/2/1 7/7/1 8/8/1 3/3/1 
f 3/3/1 8/8/1 9/9/1 5/5/1 
s 4
f 10/10/2 11/11/2 12/12/2 13/13/2 
f 11/11/2 14/14/2 15/15/2 12/12/2 
f 13/13/2 12/12/2 16/16/2 17/17/2 
f 12/12/2 15/15/2 18/18/2 16/16/2 
s 8
f 1/19/3 4/20/3 19/21/3 20/22/3 
f 4/20/3 6/23/3 21/24/3 19/21/3 
f 20/22/3 19/21/3 11/25/3 10/26/3 
f 19/21/3 21/24/3 14/27/3 11/25/3 
s 16
f 6/23/4 5/28/4 22/29/4 21/24/4 
f 23/30/4 24/31/4 25/32/4 26/33/4 
f 21/24/4 22/29/4 15/34/4 14/27/4 
f 26/33/4 25/32/4 27/35/4 28/36/4 
s 32
f 9/37/5 8/38/5 29/39/5 30/40/5 
f 8/38/5 7/41/5 31/42/5 29/39/5 
f 30/40/5 29/39/5 16/43/5 18/44/5 
f 29/39/5 31/42/5 17/45/5 16/43/5 
s 64
f 7/41/6 2/46/6 32/47/6 31/42/6 
f 2/46/6 1/19/6 20/22/6 32/47/6 
f 31/42/6 32/47/6 13/48/6 17/45/6 
f 32/47/6 20/22/6 10/26/6 13/48/6 
s off
f 5/5/1 9/9/1 24/49/1 23/50/1 
f 9/37/5 30/40/5 25/51/5 24/52/5 
f 30/40/5 18/44/5 27/53/5 25/51/5 
f 18/18/2 15/15/2 28/54/2 27/55/2 
f 15/34/3 22/29/3 26/33/3 28/36/3 
f 22/29/3 5/28/3 23/30/3 26/33/3 
# 30 polygons

