# 3ds Max Wavefront OBJ Exporter v0.97b - (c)2007 guruware
# File Created: 26.04.2017 14:35:20

#
# object Box001
#

v  0.0940 -0.4288 -0.5679
v  0.0940 -0.4288 -2.1314
v  0.7198 -0.4288 -2.1560
v  0.7198 -0.4288 -0.5679
v  -0.3398 -0.6457 -2.6249
v  -0.3398 -0.6457 -4.8692
v  1.1220 -0.6457 -4.8859
v  1.1220 -0.6457 -2.6427
v  -0.3398 4.1469 -0.1342
v  1.1220 4.1469 -0.1342
v  1.1220 4.1469 -2.5373
v  -0.3398 4.1469 -2.5577
v  1.1220 4.1469 -4.7859
v  -0.3398 4.1469 -4.8274
v  -0.3398 0.6757 0.8082
v  0.7198 0.6757 0.8082
v  0.7198 1.4066 0.8082
v  -0.3398 1.4066 0.8082
v  -0.7735 1.8403 1.0251
v  1.1220 1.8403 1.0251
v  1.1220 3.2795 1.0251
v  -0.7735 3.2795 1.0251
v  -1.2072 -0.1918 -4.9220
v  -1.2072 -0.1918 -2.6244
v  -1.2072 1.8403 -2.5901
v  -1.2072 1.8403 -4.9289
v  -1.2072 -0.1918 0.7333
v  -1.2072 1.8403 0.7333
v  -1.2072 3.7132 -2.5558
v  -1.2072 3.7132 -4.9358
v  -1.2072 3.7132 0.7333
v  1.1220 3.7132 0.7333
v  -0.3398 -0.6457 -0.1342
v  -1.2072 -0.1918 -8.0973
v  1.1220 -0.1918 -8.0973
v  1.1220 -0.6457 -7.2299
v  -0.3398 -0.6457 -7.2299
v  1.1220 -0.1918 0.7333
v  1.1220 0.2419 1.0251
v  -0.7735 0.2419 1.0251
v  -1.2072 1.8403 -8.0973
v  -0.7735 1.8403 -8.4150
v  -0.7735 0.2419 -8.4150
v  -1.2072 3.7132 -8.0973
v  -0.7735 3.2795 -8.4150
v  1.1220 3.7132 -8.0973
v  1.1220 3.2795 -8.4150
v  -0.3398 4.1469 -7.2299
v  0.0940 -0.4288 -5.3375
v  0.0940 -0.4288 -6.7961
v  0.7198 -0.4288 -6.7961
v  0.7198 -0.4288 -5.3490
v  0.0940 -0.6457 -6.7961
v  0.0940 -0.6457 -5.3057
v  1.1220 -0.6457 -6.9853
v  0.7198 -0.6457 -6.7961
v  0.7198 -0.6457 -5.3172
v  0.0940 -0.6457 -2.1314
v  0.0940 -0.6457 -0.5679
v  1.1220 -0.6457 -2.3010
v  0.7198 -0.6457 -2.1560
v  0.7198 -0.6457 -0.5679
v  1.1220 0.2735 1.0251
v  0.7198 0.6757 1.0251
v  -0.3398 0.6757 1.0251
v  -0.3398 1.4066 1.0251
v  0.7198 1.4066 1.0251
v  1.1220 0.2419 -8.4150
v  1.1220 1.8403 -8.4150
v  1.1220 4.1469 -7.2299
v  1.1220 -0.6457 -0.1342
v  1.1220 -0.6457 -5.0899
v  1.1220 -0.6457 -0.2915
v  1.1220 1.8087 1.0251
v  2.1500 -0.4288 -0.5679
v  1.5242 -0.4288 -0.5679
v  1.5242 -0.4288 -2.1560
v  2.1500 -0.4288 -2.1314
v  2.5837 -0.6457 -2.6249
v  2.5837 -0.6457 -4.8692
v  2.5837 4.1469 -0.1342
v  2.5837 4.1469 -2.5577
v  2.5837 4.1469 -4.8274
v  2.5837 0.6757 0.8082
v  2.5837 1.4066 0.8082
v  1.5242 1.4066 0.8082
v  1.5242 0.6757 0.8082
v  3.0175 1.8403 1.0251
v  3.0175 3.2795 1.0251
v  3.4512 -0.1918 -4.8526
v  3.4512 1.8403 -4.8481
v  3.4512 1.8403 -2.5901
v  3.4512 -0.1918 -2.6244
v  3.4512 1.8403 0.7333
v  3.4512 -0.1918 0.7333
v  3.4512 3.7132 -4.8240
v  3.4512 3.7132 -2.5558
v  3.4512 3.7132 0.7333
v  2.5837 -0.6457 -0.1342
v  3.4512 -0.1918 -8.0973
v  2.5837 -0.6457 -7.2299
v  3.0175 0.2419 1.0251
v  3.0174 0.2419 -8.4150
v  3.0174 1.8403 -8.4150
v  3.4512 1.8403 -8.0973
v  3.0174 3.2795 -8.4150
v  3.4512 3.7132 -8.0973
v  2.5837 4.1469 -7.2299
v  2.1500 -0.4288 -5.3375
v  1.5242 -0.4288 -5.3490
v  1.5242 -0.4288 -6.7961
v  2.1500 -0.4288 -6.7961
v  2.1500 -0.6457 -5.3057
v  2.1500 -0.6457 -6.7961
v  1.5242 -0.6457 -6.7961
v  1.5242 -0.6457 -5.3172
v  2.1500 -0.6457 -0.5679
v  2.1500 -0.6457 -2.1314
v  1.5242 -0.6457 -2.1560
v  1.5242 -0.6457 -0.5679
v  2.5837 0.6757 1.0251
v  1.5242 0.6757 1.0251
v  2.5837 1.4066 1.0251
v  1.5242 1.4066 1.0251
# 124 vertices

vn 0.0000 -1.0000 -0.0000
vn -0.0000 -1.0000 -0.0000
vn 0.0000 1.0000 -0.0000
vn 0.0000 0.0000 1.0000
vn -1.0000 0.0000 -0.0000
vn 0.0000 0.8944 0.4472
vn -0.4472 0.8944 -0.0000
vn -0.4636 -0.8860 -0.0000
vn 0.0000 -0.8860 -0.4636
vn 0.0000 -0.5582 0.8297
vn -0.5582 0.0000 0.8297
vn -0.5909 0.0000 -0.8068
vn 0.0000 0.5909 -0.8068
vn -0.4636 -0.8860 0.0000
vn 0.0000 -1.0000 0.0000
vn -0.0183 -0.1450 -0.9893
vn 1.0000 0.0000 -0.0000
vn -0.0000 -1.0000 0.0000
vn 0.0393 0.0000 0.9992
vn 0.0000 0.0000 -1.0000
vn 0.0000 0.8944 -0.4472
vn 0.0000 -0.8860 0.4636
vn -0.0000 0.5582 0.8297
vn 0.0000 -0.5909 -0.8068
vn 1.0000 -0.0000 0.0000
vn 1.0000 0.0000 0.0000
vn 0.4472 0.8944 0.0000
vn 0.4472 0.8944 -0.0000
vn 0.4636 -0.8860 -0.0000
vn -0.0000 -0.8860 -0.4636
vn -0.0000 -0.5582 0.8297
vn 0.5582 0.0000 0.8297
vn 0.5909 0.0000 -0.8068
vn 0.4636 -0.8860 0.0000
vn 0.0183 -0.1450 -0.9893
vn -0.0393 0.0000 0.9992
vn -0.0000 -0.8860 0.4636
vn 0.0000 0.5582 0.8297
# 38 vertex normals

vt 0.8406 0.3679 -0.7634
vt 0.9210 0.3679 0.7634
vt 0.9222 0.4000 -0.7634
vt 0.8406 0.4000 0.7634
vt 0.2166 0.5258 4.0823
vt 0.3319 0.5295 4.0823
vt 0.3370 0.6065 4.0823
vt 0.2095 0.6050 4.0823
vt 0.0969 0.3123 -4.3612
vt 0.0960 0.2388 -4.3612
vt 0.2188 0.2386 -4.3612
vt 0.2197 0.3143 -4.3612
vt 0.3351 0.2384 -4.3612
vt 0.3375 0.3141 -4.3612
vt 0.8456 0.5573 -0.2512
vt 0.9000 0.5573 -0.2512
vt 0.9000 0.5949 0.2512
vt 0.8456 0.5949 0.2512
vt 0.5670 0.8151 2.3479
vt 0.6671 0.8059 2.3479
vt 0.6671 0.8831 2.3479
vt 0.5775 0.8852 2.3479
vt 0.3141 0.7537 3.7830
vt 0.1960 0.7537 3.7830
vt 0.1943 0.8581 3.7830
vt 0.3144 0.8581 3.7830
vt 0.0236 0.7537 -3.7830
vt 0.0236 0.8581 3.7830
vt 0.1925 0.9543 3.7830
vt 0.3148 0.9543 3.7830
vt 0.0236 0.9543 3.7830
vt 0.0498 0.3597 -4.3612
vt 0.0455 0.2389 4.3612
vt 0.3438 0.3648 -4.3612
vt 0.2190 0.3649 -4.3612
vt 0.0200 0.4858 -4.0823
vt 0.2150 0.4734 4.0823
vt 0.0743 0.5326 4.0823
vt 0.3373 0.4769 4.0823
vt 0.5091 0.4881 4.0823
vt 0.5095 0.6149 -4.0823
vt 0.4556 0.6120 4.0823
vt 0.4590 0.5345 4.0823
vt 0.5264 0.7058 -2.3479
vt 0.6671 0.6909 2.3479
vt 0.6671 0.7217 2.3479
vt 0.5566 0.7295 2.3479
vt 0.5565 0.9104 2.3479
vt 0.5398 0.8189 2.3479
vt 0.6896 0.2785 -2.6717
vt 0.6838 0.1726 -2.4275
vt 0.7127 0.1726 -2.6717
vt 0.7152 0.2529 -2.6717
vt 0.6893 0.0737 -2.6717
vt 0.7149 0.0998 -2.6717
vt 0.8114 0.0689 -2.6717
vt 0.8113 0.0979 -2.6717
vt 0.4599 0.3122 -4.3612
vt 0.5074 0.3597 4.3612
vt 0.4772 0.9543 3.7830
vt 0.4772 0.8581 3.7830
vt 0.4772 0.7537 -3.7830
vt 0.8551 0.4658 -0.7012
vt 0.9300 0.4658 -0.7012
vt 0.9300 0.4979 0.7012
vt 0.8557 0.4979 0.7012
vt 0.4392 0.5528 4.0823
vt 0.3542 0.5518 4.0823
vt 0.4434 0.6113 4.0823
vt 0.4330 0.5921 4.0823
vt 0.3557 0.5871 4.0823
vt 0.3653 0.5796 4.0823
vt 0.4252 0.5822 4.0823
vt 0.3626 0.5580 4.0823
vt 0.4289 0.5611 4.0823
vt 0.1916 0.5486 4.0823
vt 0.0969 0.5498 4.0823
vt 0.1932 0.6051 4.0823
vt 0.1846 0.5851 4.0823
vt 0.1817 0.5566 4.0823
vt 0.1063 0.5576 4.0823
vt 0.1771 0.5766 4.0823
vt 0.0995 0.5873 4.0823
vt 0.1080 0.5784 4.0823
vt 0.6671 0.7271 2.3479
vt 0.6488 0.7486 2.3479
vt 0.5782 0.7476 2.3479
vt 0.5874 0.7911 2.3479
vt 0.6396 0.7571 2.3479
vt 0.5894 0.7561 2.3479
vt 0.6467 0.7889 2.3479
vt 0.6383 0.7809 2.3479
vt 0.5941 0.7824 2.3479
vt 0.8104 0.2562 -2.6717
vt 0.8109 0.1727 -2.6717
vt 0.5113 0.2381 -4.3612
vt 0.4603 0.2382 -4.3612
vt 0.0303 0.6126 4.0823
vt 0.0814 0.6088 4.0823
vt 0.6671 0.9085 2.3479
vt 0.8103 0.2849 -2.6717
vt 0.3462 0.6068 4.0823
vt 0.0892 0.6084 4.0823
vt 0.6671 0.8061 2.3479
vt 0.8394 0.4000 -0.7634
vt 0.8394 0.3679 0.7634
vt 0.9210 0.3679 -0.7634
vt 0.9197 0.4000 0.7634
vt 0.2177 0.6830 4.0823
vt 0.3297 0.6822 4.0823
vt 0.0967 0.1654 -4.3612
vt 0.2194 0.1629 -4.3612
vt 0.3373 0.1628 -4.3612
vt 0.7673 0.8151 2.3479
vt 0.7568 0.8852 2.3479
vt 0.3105 0.7537 3.7830
vt 0.3103 0.8581 3.7830
vt 0.3090 0.9543 3.7830
vt 0.0494 0.1182 -4.3612
vt 0.3375 0.1119 -4.3612
vt 0.2185 0.1124 -4.3612
vt 0.0409 0.7303 4.0823
vt 0.0848 0.6825 4.0823
vt 0.2164 0.7336 4.0823
vt 0.3281 0.7316 4.0823
vt 0.4963 0.7368 4.0823
vt 0.4525 0.6876 4.0823
vt 0.8079 0.7058 -2.3479
vt 0.7777 0.7295 2.3479
vt 0.7778 0.9104 2.3479
vt 0.7945 0.8189 2.3479
vt 0.9310 0.2798 -2.6717
vt 0.9057 0.2539 -2.6717
vt 0.9090 0.1737 -2.6717
vt 0.9379 0.1739 -2.6717
vt 0.9076 0.1008 -2.6717
vt 0.9335 0.0751 2.6717
vt 0.5069 0.1164 -4.3612
vt 0.4596 0.1641 -4.3612
vt 0.8551 0.4979 -0.7012
vt 0.8557 0.4658 0.7012
vt 0.9300 0.4658 0.7012
vt 0.9300 0.4979 -0.7012
vt 0.3527 0.6619 4.0823
vt 0.4348 0.6682 4.0823
vt 0.4317 0.6294 4.0823
vt 0.4232 0.6385 4.0823
vt 0.3638 0.6352 4.0823
vt 0.3546 0.6272 4.0823
vt 0.3611 0.6562 4.0823
vt 0.4255 0.6593 4.0823
vt 0.1043 0.6644 4.0823
vt 0.1931 0.6618 4.0823
vt 0.1854 0.6253 4.0823
vt 0.1125 0.6562 4.0823
vt 0.1834 0.6544 4.0823
vt 0.1782 0.6342 4.0823
vt 0.1106 0.6361 4.0823
vt 0.1015 0.6282 4.0823
vt 0.7561 0.7476 2.3479
vt 0.6854 0.7486 2.3479
vt 0.7469 0.7911 2.3479
vt 0.7449 0.7561 2.3479
vt 0.6947 0.7571 2.3479
vt 0.6960 0.7809 2.3479
vt 0.6876 0.7889 2.3479
vt 0.7402 0.7824 2.3479
# 167 texture coords

g Box001
s 2
f 1/1/1 2/2/1 3/3/1 4/4/1 
f 5/5/2 6/6/2 7/7/1 8/8/1 
s 4
f 9/9/3 10/10/3 11/11/3 12/12/3 
f 12/12/3 11/11/3 13/13/3 14/14/3 
s 8
f 15/15/4 16/16/4 17/17/4 18/18/4 
f 19/19/4 20/20/4 21/21/4 22/22/4 
s 64
f 23/23/5 24/24/5 25/25/5 26/26/5 
f 24/24/5 27/27/5 28/28/5 25/25/5 
f 26/26/5 25/25/5 29/29/5 30/30/5 
f 25/25/5 28/28/5 31/31/5 29/29/5 
s off
f 31/32/6 32/33/6 10/10/6 9/9/6 
f 30/34/7 29/35/7 12/12/7 14/14/7 
f 29/35/7 31/32/7 9/9/7 12/12/7 
f 27/36/8 24/37/8 5/5/8 33/38/8 
f 24/37/8 23/39/8 6/6/8 5/5/8 
f 34/40/9 35/41/9 36/42/9 37/43/9 
f 27/44/10 38/45/10 39/46/10 40/47/10 
f 31/48/11 28/49/11 19/19/11 22/22/11 
f 28/49/11 27/44/11 40/47/11 19/19/11 
f 34/50/12 41/51/12 42/52/12 43/53/12 
f 41/51/12 44/54/12 45/55/12 42/52/12 
f 44/54/13 46/56/13 47/57/13 45/55/13 
f 14/14/7 48/58/7 44/59/7 30/34/7 
s 64
f 30/30/5 44/60/5 41/61/5 26/26/5 
f 26/26/5 41/61/5 34/62/5 23/23/5 
s off
f 23/39/14 34/40/14 37/43/14 6/6/14 
s 2
f 49/63/1 50/64/1 51/65/1 52/66/1 
s off
f 6/6/15 37/43/15 53/67/15 54/68/15 
f 37/43/1 36/42/1 55/69/1 56/70/1 53/67/1 
f 56/70/5 57/71/5 52/72/5 51/73/5 
f 57/71/16 54/68/16 49/74/16 52/72/16 
f 54/68/17 53/67/17 50/75/17 49/74/17 
f 53/67/4 56/70/4 51/73/4 50/75/4 
f 33/38/18 5/5/18 58/76/18 59/77/18 
f 5/5/1 8/8/1 60/78/1 61/79/1 58/76/1 
f 59/77/17 58/76/17 2/80/17 1/81/17 
f 58/76/19 61/79/19 3/82/19 2/80/19 
f 61/79/5 62/83/5 4/84/5 3/82/5 
f 62/83/20 59/77/20 1/81/20 4/84/20 
f 40/47/4 39/46/4 63/85/4 64/86/4 65/87/4 
f 19/19/4 40/47/4 65/87/4 66/88/4 
f 65/87/3 64/86/3 16/89/3 15/90/3 
f 64/86/5 67/91/5 17/92/5 16/89/5 
f 67/91/1 66/88/1 18/93/1 17/92/1 
f 66/88/17 65/87/17 15/90/17 18/93/17 
s 32
f 68/94/20 43/53/20 42/52/20 69/95/20 
f 69/95/20 42/52/20 45/55/20 47/57/20 
s off
f 46/96/21 44/59/21 48/58/21 70/97/21 
f 38/98/22 27/36/22 33/38/22 71/99/22 
f 32/100/23 31/48/23 22/22/23 21/21/23 
f 35/101/24 34/50/24 43/53/24 68/94/24 
s 4
f 70/97/3 48/58/3 14/14/3 13/13/3 
s off
f 72/102/15 57/71/15 56/70/15 55/69/15 
f 7/7/1 6/6/1 54/68/1 57/71/1 72/102/1 
f 73/103/15 62/83/15 61/79/15 60/78/15 
f 71/99/15 33/38/15 59/77/15 62/83/15 73/103/15 
f 74/104/4 67/91/4 64/86/4 63/85/4 
f 20/20/4 19/19/4 66/88/4 67/91/4 74/104/4 
s 2
f 75/105/1 76/106/1 77/107/1 78/108/1 
f 79/109/1 8/8/1 7/7/1 80/110/1 
s 4
f 81/111/3 82/112/3 11/11/3 10/10/3 
f 82/112/3 83/113/3 13/13/3 11/11/3 
s 8
f 84/16/4 85/17/4 86/18/4 87/15/4 
f 88/114/4 89/115/4 21/21/4 20/20/4 
s 64
f 90/116/25 91/117/25 92/25/25 93/24/26 
f 93/24/26 92/25/25 94/28/17 95/27/17 
f 91/117/25 96/118/25 97/29/25 92/25/25 
f 92/25/25 97/29/25 98/31/17 94/28/17 
s off
f 98/119/6 81/111/6 10/10/6 32/33/6 
f 96/120/27 83/113/27 82/112/27 97/121/27 
f 97/121/28 82/112/28 81/111/28 98/119/28 
f 95/122/29 99/123/29 79/109/29 93/124/29 
f 93/124/29 79/109/29 80/110/29 90/125/29 
f 100/126/30 101/127/30 36/42/30 35/41/30 
f 95/128/31 102/129/31 39/46/31 38/45/31 
f 98/130/32 89/115/32 88/114/32 94/131/32 
f 94/131/32 88/114/32 102/129/32 95/128/32 
f 100/132/33 103/133/33 104/134/33 105/135/33 
f 105/135/33 104/134/33 106/136/33 107/137/33 
f 107/137/13 106/136/13 47/57/13 46/56/13 
f 83/113/28 96/120/28 107/138/28 108/139/28 
s 64
f 96/118/25 91/117/25 105/61/17 107/60/17 
f 91/117/25 90/116/25 100/62/17 105/61/17 
s off
f 90/125/34 80/110/34 101/127/34 100/126/34 
s 2
f 109/140/1 110/141/1 111/142/1 112/143/1 
s off
f 80/110/18 113/144/18 114/145/18 101/127/18 
f 101/127/2 114/145/2 115/146/2 55/69/2 36/42/2 
f 115/146/17 111/147/17 110/148/17 116/149/17 
f 116/149/35 110/148/35 109/150/35 113/144/35 
f 113/144/5 109/150/5 112/151/5 114/145/5 
f 114/145/4 112/151/4 111/147/4 115/146/4 
f 99/123/15 117/152/15 118/153/15 79/109/15 
f 79/109/2 118/153/2 119/154/2 60/78/2 8/8/2 
f 117/152/5 75/155/5 78/156/5 118/153/5 
f 118/153/36 78/156/36 77/157/36 119/154/36 
f 119/154/17 77/157/17 76/158/17 120/159/17 
f 120/159/20 76/158/20 75/155/20 117/152/20 
f 102/129/4 121/160/4 122/161/4 63/85/4 39/46/4 
f 88/114/4 123/162/4 121/160/4 102/129/4 
f 121/160/3 84/163/3 87/164/3 122/161/3 
f 122/161/17 87/164/17 86/165/17 124/166/17 
f 124/166/1 86/165/1 85/167/1 123/162/1 
f 123/162/5 85/167/5 84/163/5 121/160/5 
s 32
f 68/94/20 69/95/20 104/134/20 103/133/20 
f 69/95/20 47/57/20 106/136/20 104/134/20 
s off
f 46/96/21 70/97/21 108/139/21 107/138/21 
f 38/98/37 71/99/37 99/123/37 95/122/37 
f 32/100/38 21/21/38 89/115/38 98/130/38 
f 35/101/24 68/94/24 103/133/24 100/132/24 
s 4
f 70/97/3 13/13/3 83/113/3 108/139/3 
s off
f 72/102/18 55/69/18 115/146/18 116/149/18 
f 7/7/1 72/102/1 116/149/1 113/144/1 80/110/1 
f 73/103/18 60/78/18 119/154/18 120/159/18 
f 71/99/18 73/103/18 120/159/18 117/152/18 99/123/18 
f 74/104/4 63/85/4 122/161/4 124/166/4 
f 20/20/4 74/104/4 124/166/4 123/162/4 88/114/4 
# 116 polygons

