# 3ds Max Wavefront OBJ Exporter v0.97b - (c)2007 guruware
# File Created: 19.02.2017 19:11:42

mtllib Ship.mtl

#
# object Box001
#

v  2.0016 0.0000 39.4533
v  2.0016 0.0000 26.2880
v  9.1717 0.0000 26.2880
v  9.1717 0.0000 39.4533
v  13.8077 0.0000 26.2880
v  13.8077 0.0000 42.2628
v  19.3655 3.0624 26.2880
v  19.3655 3.0624 42.2628
v  2.0016 0.0000 13.1227
v  9.1717 0.0000 13.1227
v  13.8077 0.0000 13.1227
v  19.3655 3.0624 13.1227
v  2.0016 0.0000 -0.0426
v  9.1717 0.0000 -0.0426
v  13.8077 0.0000 -0.0426
v  19.3655 3.0624 -0.0426
v  2.0016 0.0000 -13.2079
v  9.1717 0.0000 -13.2079
v  13.8077 0.0000 -13.2079
v  19.3655 3.0624 -13.2079
v  2.0016 0.0000 -26.3732
v  9.1717 0.0000 -26.3732
v  13.8077 0.0000 -26.3732
v  19.3655 3.0624 -26.3732
v  2.0016 0.0000 -32.8284
v  9.1717 3.8971 -35.8164
v  13.8077 3.8971 -32.9268
v  19.3655 3.8971 -28.3467
v  2.0016 26.4105 39.4533
v  9.1717 12.6352 39.4533
v  9.1717 12.6352 26.2880
v  2.0016 26.4105 26.2880
v  13.8077 13.5908 42.2628
v  13.8077 13.5908 26.2880
v  19.3655 10.6382 42.2628
v  19.3655 10.6382 26.2880
v  9.1717 12.6352 13.1227
v  2.0016 12.8251 13.1227
v  13.8077 13.5908 13.1227
v  19.3655 10.6382 13.1227
v  9.1717 17.1086 -0.0426
v  2.0016 17.2985 -0.0426
v  13.8077 13.5908 -0.0426
v  19.3655 10.6382 -0.0426
v  9.1717 12.6352 -13.2079
v  2.0016 12.8251 -13.2079
v  13.8077 13.5908 -13.2079
v  19.3655 10.6382 -13.2079
v  9.1717 12.6352 -26.3732
v  2.0016 11.6522 -26.3732
v  13.8077 13.5908 -26.3732
v  19.3655 10.6382 -26.3732
v  9.1717 9.3640 -37.4412
v  2.0016 9.3640 -34.4532
v  13.8077 9.3640 -36.6489
v  19.3655 9.3640 -32.0688
v  37.7828 4.1988 41.1264
v  35.2389 4.1988 26.2880
v  35.2389 9.5018 26.2880
v  37.7828 9.5018 41.1264
v  30.8155 4.1988 13.1227
v  30.8155 9.5018 13.1227
v  27.3899 4.1988 5.2915
v  27.3899 9.5018 5.2915
v  23.5119 4.1988 26.2880
v  23.5119 4.1988 41.1264
v  23.5119 4.1988 13.1227
v  23.5119 4.1988 1.0938
v  23.5119 9.5018 1.0938
v  23.5119 9.5018 13.1227
v  23.5119 9.5018 26.2880
v  23.5119 9.5018 41.1264
v  -5.1686 0.0000 39.4533
v  -5.1686 0.0000 26.2880
v  -9.8045 0.0000 42.2628
v  -9.8045 0.0000 26.2880
v  -15.3624 3.0624 42.2628
v  -15.3624 3.0624 26.2880
v  -5.1686 0.0000 13.1227
v  -9.8045 0.0000 13.1227
v  -15.3624 3.0624 13.1227
v  -5.1686 0.0000 -0.0426
v  -9.8045 0.0000 -0.0426
v  -15.3624 3.0624 -0.0426
v  -5.1686 0.0000 -13.2079
v  -9.8045 0.0000 -13.2079
v  -15.3624 3.0624 -13.2079
v  -5.1686 0.0000 -26.3732
v  -9.8045 0.0000 -26.3732
v  -15.3624 3.0624 -26.3732
v  -5.1686 3.8971 -35.8164
v  -9.8045 3.8971 -32.9268
v  -15.3624 3.8971 -28.3467
v  -5.1686 12.6352 26.2880
v  -5.1686 12.6352 39.4533
v  -9.8045 13.5908 26.2880
v  -9.8045 13.5908 42.2628
v  -15.3624 10.6382 26.2880
v  -15.3624 10.6382 42.2628
v  -5.1686 12.6352 13.1227
v  -9.8045 13.5908 13.1227
v  -15.3624 10.6382 13.1227
v  -5.1686 17.1086 -0.0426
v  -9.8045 13.5908 -0.0426
v  -15.3624 10.6382 -0.0426
v  -5.1686 12.6352 -13.2079
v  -9.8045 13.5908 -13.2079
v  -15.3624 10.6382 -13.2079
v  -5.1686 12.6352 -26.3732
v  -9.8045 13.5908 -26.3732
v  -15.3624 10.6382 -26.3732
v  -5.1686 9.3640 -37.4412
v  -9.8045 9.3640 -36.6489
v  -15.3624 9.3640 -32.0688
v  -33.7797 4.1988 41.1264
v  -33.7797 9.5018 41.1264
v  -31.2357 9.5018 26.2880
v  -31.2357 4.1988 26.2880
v  -26.8124 9.5018 13.1227
v  -26.8124 4.1988 13.1227
v  -23.3868 9.5018 5.2915
v  -23.3868 4.1988 5.2915
v  -19.5088 4.1988 41.1264
v  -19.5088 4.1988 26.2880
v  -19.5088 4.1988 13.1227
v  -19.5088 4.1988 1.0938
v  -19.5088 9.5018 1.0938
v  -19.5088 9.5018 13.1227
v  -19.5088 9.5018 26.2880
v  -19.5088 9.5018 41.1264
# 130 vertices

vn 0.0000 -1.0000 -0.0000
vn 0.2492 -0.9685 -0.0000
vn 0.3010 -0.9536 -0.0000
vn 0.4826 -0.8758 -0.0000
vn -0.0000 -0.9930 -0.1178
vn 0.0213 -0.9759 -0.2173
vn 0.2274 -0.9426 -0.2446
vn 0.4741 -0.8605 -0.1865
vn 0.2300 -0.9271 -0.2958
vn 0.2437 -0.8675 -0.4336
vn 0.4207 -0.8084 -0.4116
vn 0.0000 1.0000 -0.0000
vn 0.3280 0.9447 -0.0000
vn 0.4294 0.9031 -0.0000
vn 0.0000 0.9808 -0.1949
vn 0.2148 0.9767 -0.0000
vn 0.1420 0.9899 -0.0000
vn 0.4691 0.8831 -0.0000
vn 0.0882 0.9952 -0.0420
vn 0.0000 0.9716 -0.2367
vn 0.2757 0.9601 0.0462
vn -0.0000 1.0000 -0.0000
vn 0.5019 0.8631 0.0562
vn -0.0862 0.9832 -0.1606
vn -0.0000 0.9841 -0.1774
vn 0.1938 0.9786 -0.0687
vn -0.1382 0.9745 -0.1769
vn -0.0000 0.9824 -0.1866
vn 0.1194 0.9784 -0.1685
vn 0.4668 0.8787 -0.1005
vn -0.0295 0.9593 -0.2807
vn 0.0000 0.9622 -0.2725
vn 0.1017 0.9384 -0.3303
vn 0.3560 0.8825 -0.3075
vn 0.0000 0.0000 1.0000
vn -0.2691 0.0000 0.9631
vn -0.2128 0.0000 0.9771
vn -0.3200 0.0000 0.9474
vn -0.3029 0.0000 0.9530
vn 0.9856 0.0000 -0.1690
vn 0.9697 0.0000 -0.2445
vn 0.9330 0.0000 -0.3600
vn 0.9162 0.0000 -0.4008
vn 1.0000 0.0000 -0.0000
vn 0.5630 -0.4651 -0.6832
vn 0.4856 -0.4415 -0.7545
vn 0.3257 -0.5321 -0.7815
vn 0.0482 -0.2499 -0.9671
vn -0.0224 -0.3751 -0.9267
vn 0.0000 -0.1710 -0.9853
vn 0.0000 -0.2172 -0.9761
vn 0.2643 -0.9644 -0.0000
vn 0.2643 0.0000 -0.9644
vn 0.2643 0.9644 -0.0000
vn 0.2643 0.0000 0.9644
vn 0.7345 0.0000 -0.6786
vn -0.3010 -0.9536 -0.0000
vn -0.2492 -0.9685 -0.0000
vn -0.4826 -0.8758 -0.0000
vn -0.0213 -0.9759 -0.2173
vn -0.2274 -0.9426 -0.2446
vn -0.4741 -0.8605 -0.1865
vn -0.2300 -0.9271 -0.2958
vn -0.2437 -0.8675 -0.4336
vn -0.4207 -0.8084 -0.4116
vn -0.4294 0.9031 -0.0000
vn -0.3280 0.9447 -0.0000
vn -0.1420 0.9899 -0.0000
vn -0.2148 0.9767 -0.0000
vn -0.4691 0.8831 -0.0000
vn -0.0882 0.9952 -0.0420
vn -0.2757 0.9601 0.0462
vn -0.5019 0.8631 0.0562
vn 0.0862 0.9832 -0.1606
vn -0.1938 0.9786 -0.0687
vn 0.1382 0.9745 -0.1769
vn -0.1194 0.9784 -0.1685
vn -0.4668 0.8787 -0.1005
vn 0.0295 0.9593 -0.2807
vn -0.1017 0.9384 -0.3303
vn -0.3560 0.8825 -0.3075
vn 0.2128 0.0000 0.9771
vn 0.2691 0.0000 0.9631
vn 0.3029 0.0000 0.9530
vn 0.3200 0.0000 0.9474
vn -0.9856 0.0000 -0.1690
vn -0.9697 0.0000 -0.2445
vn -0.9330 0.0000 -0.3600
vn -0.9162 0.0000 -0.4008
vn -1.0000 0.0000 -0.0000
vn -0.5630 -0.4651 -0.6832
vn -0.3257 -0.5321 -0.7815
vn -0.4856 -0.4415 -0.7545
vn 0.0224 -0.3751 -0.9267
vn -0.0482 -0.2499 -0.9671
vn -0.2643 -0.9644 -0.0000
vn -0.2643 0.0000 -0.9644
vn -0.2643 0.9644 -0.0000
vn -0.2643 0.0000 0.9644
vn -0.7345 0.0000 -0.6786
# 100 vertex normals

vt 0.5940 0.1442 0.0000
vt 0.5940 0.2870 0.0000
vt 0.6717 0.2870 0.0000
vt 0.6717 0.1442 0.0000
vt 0.7220 0.2870 0.0000
vt 0.7220 0.1138 0.0000
vt 0.7823 0.2870 0.0000
vt 0.7823 0.1138 0.0000
vt 0.5940 0.4297 0.0000
vt 0.6717 0.4297 0.0000
vt 0.7220 0.4297 0.0000
vt 0.7823 0.4297 0.0000
vt 0.5940 0.5724 0.0000
vt 0.6717 0.5724 0.0000
vt 0.7220 0.5724 0.0000
vt 0.7823 0.5724 0.0000
vt 0.5940 0.7152 0.0000
vt 0.6717 0.7152 0.0000
vt 0.7220 0.7152 0.0000
vt 0.7823 0.7152 0.0000
vt 0.5940 0.8579 0.0000
vt 0.6717 0.8579 0.0000
vt 0.7220 0.8579 0.0000
vt 0.7823 0.8579 0.0000
vt 0.5940 0.9279 0.0000
vt 0.6717 0.9603 0.0000
vt 0.7220 0.9290 0.0000
vt 0.7823 0.8793 0.0000
vt 0.2069 0.4751 0.0000
vt 0.0385 0.4751 0.0000
vt 0.0385 0.6179 0.0000
vt 0.2069 0.6179 0.0000
vt 0.4700 0.9518 0.0000
vt 0.4197 0.9822 0.0000
vt 0.4197 0.8090 0.0000
vt 0.4700 0.8090 0.0000
vt 0.3595 0.9822 0.0000
vt 0.3595 0.8090 0.0000
vt 0.0385 0.7606 0.0000
vt 0.0762 0.7606 0.0000
vt 0.4197 0.6663 0.0000
vt 0.4700 0.6663 0.0000
vt 0.3595 0.6663 0.0000
vt 0.5479 0.6663 0.0000
vt 0.4700 0.5236 0.0000
vt 0.5479 0.5236 0.0000
vt 0.4197 0.5236 0.0000
vt 0.3595 0.5236 0.0000
vt 0.4700 0.3808 0.0000
vt 0.5479 0.3808 0.0000
vt 0.4197 0.3808 0.0000
vt 0.3595 0.3808 0.0000
vt 0.4700 0.2381 0.0000
vt 0.5479 0.2381 0.0000
vt 0.4197 0.2381 0.0000
vt 0.3595 0.2381 0.0000
vt 0.4700 0.1181 0.0000
vt 0.5479 0.1505 0.0000
vt 0.4197 0.1267 0.0000
vt 0.3595 0.1763 0.0000
vt 0.3263 0.0211 0.0000
vt 0.3263 0.0990 0.0000
vt 0.1893 0.0990 0.0000
vt 0.0400 0.0211 0.0000
vt 0.3263 0.1493 0.0000
vt 0.1789 0.1493 0.0000
vt 0.2931 0.2096 0.0000
vt 0.2110 0.2096 0.0000
vt 0.5417 0.0211 0.0000
vt 0.7025 0.0211 0.0000
vt 0.7025 0.0786 0.0000
vt 0.5417 0.0786 0.0000
vt 0.8453 0.0211 0.0000
vt 0.8453 0.0786 0.0000
vt 0.9302 0.0211 0.0000
vt 0.9302 0.0786 0.0000
vt 0.8602 0.6085 0.0000
vt 0.8602 0.7512 0.0000
vt 0.9424 0.7512 0.0000
vt 0.9424 0.6085 0.0000
vt 0.8602 0.8940 0.0000
vt 0.9424 0.8940 0.0000
vt 0.8693 0.9154 0.0000
vt 0.9285 0.9557 0.0000
vt 0.1250 0.3908 0.0000
vt 0.1160 0.3133 0.0000
vt 0.0465 0.2955 0.0000
vt 0.0555 0.3730 0.0000
vt 0.1129 0.2545 0.0000
vt 0.0532 0.2501 0.0000
vt 0.1129 0.2539 0.0000
vt 0.1669 0.1767 0.0000
vt 0.0643 0.1678 0.0000
vt 0.0513 0.2508 0.0000
vt 0.8272 0.2870 0.0000
vt 0.8272 0.1261 0.0000
vt 0.8272 0.4297 0.0000
vt 0.8272 0.5601 0.0000
vt 0.3948 0.0246 0.0000
vt 0.4766 0.0317 0.0000
vt 0.4604 0.0755 0.0000
vt 0.4032 0.0704 0.0000
vt 0.3145 0.6663 0.0000
vt 0.3145 0.5359 0.0000
vt 0.3145 0.8090 0.0000
vt 0.3145 0.9699 0.0000
vt 0.2808 0.2545 0.0000
vt 0.2233 0.2545 0.0000
vt 0.9544 0.2870 0.0000
vt 0.9819 0.1261 0.0000
vt 0.9064 0.4297 0.0000
vt 0.8693 0.5146 0.0000
vt 0.9757 0.0211 0.0000
vt 0.9757 0.0786 0.0000
vt 0.2353 0.6663 0.0000
vt 0.2725 0.5814 0.0000
vt 0.1874 0.8090 0.0000
vt 0.1598 0.9699 0.0000
vt 0.2808 0.4092 0.0000
vt 0.2233 0.4092 0.0000
vt 0.6715 0.1442 0.0000
vt 0.6715 0.2869 0.0000
vt 0.7218 0.1137 0.0000
vt 0.7218 0.2869 0.0000
vt 0.7820 0.1137 0.0000
vt 0.7820 0.2869 0.0000
vt 0.6715 0.4297 0.0000
vt 0.7218 0.4297 0.0000
vt 0.7820 0.4297 0.0000
vt 0.6715 0.5724 0.0000
vt 0.7218 0.5724 0.0000
vt 0.7820 0.5724 0.0000
vt 0.6715 0.7151 0.0000
vt 0.7218 0.7151 0.0000
vt 0.7820 0.7151 0.0000
vt 0.6715 0.8579 0.0000
vt 0.7218 0.8579 0.0000
vt 0.7820 0.8579 0.0000
vt 0.6715 0.9602 0.0000
vt 0.7218 0.9289 0.0000
vt 0.7820 0.8793 0.0000
vt 0.2075 0.4750 0.0000
vt 0.2075 0.6177 0.0000
vt 0.0392 0.6177 0.0000
vt 0.0392 0.4750 0.0000
vt 0.4702 0.9518 0.0000
vt 0.4702 0.8090 0.0000
vt 0.4200 0.8090 0.0000
vt 0.4200 0.9822 0.0000
vt 0.3597 0.8090 0.0000
vt 0.3597 0.9822 0.0000
vt 0.0769 0.7605 0.0000
vt 0.0392 0.7605 0.0000
vt 0.4702 0.6663 0.0000
vt 0.4200 0.6663 0.0000
vt 0.3597 0.6663 0.0000
vt 0.4702 0.5236 0.0000
vt 0.4200 0.5236 0.0000
vt 0.3597 0.5236 0.0000
vt 0.4702 0.3808 0.0000
vt 0.4200 0.3808 0.0000
vt 0.3597 0.3808 0.0000
vt 0.4702 0.2381 0.0000
vt 0.4200 0.2381 0.0000
vt 0.3597 0.2381 0.0000
vt 0.4702 0.1181 0.0000
vt 0.4200 0.1267 0.0000
vt 0.3597 0.1763 0.0000
vt 0.1894 0.0989 0.0000
vt 0.3263 0.0989 0.0000
vt 0.1790 0.1491 0.0000
vt 0.3263 0.1491 0.0000
vt 0.2110 0.2094 0.0000
vt 0.2931 0.2094 0.0000
vt 0.5414 0.0213 0.0000
vt 0.5414 0.0788 0.0000
vt 0.7023 0.0788 0.0000
vt 0.7023 0.0213 0.0000
vt 0.8450 0.0788 0.0000
vt 0.8450 0.0213 0.0000
vt 0.9299 0.0788 0.0000
vt 0.9299 0.0213 0.0000
vt 0.8603 0.6090 0.0000
vt 0.9424 0.6090 0.0000
vt 0.9424 0.7517 0.0000
vt 0.8603 0.7517 0.0000
vt 0.9424 0.8945 0.0000
vt 0.8603 0.8945 0.0000
vt 0.9286 0.9562 0.0000
vt 0.8693 0.9158 0.0000
vt 0.1205 0.3873 0.0000
vt 0.0548 0.3738 0.0000
vt 0.0494 0.3003 0.0000
vt 0.1152 0.3139 0.0000
vt 0.0512 0.2501 0.0000
vt 0.1126 0.2560 0.0000
vt 0.8270 0.1261 0.0000
vt 0.8270 0.2869 0.0000
vt 0.8270 0.4297 0.0000
vt 0.8270 0.5601 0.0000
vt 0.3943 0.0246 0.0000
vt 0.4027 0.0705 0.0000
vt 0.4600 0.0755 0.0000
vt 0.4762 0.0318 0.0000
vt 0.3147 0.5359 0.0000
vt 0.3147 0.6663 0.0000
vt 0.3147 0.8090 0.0000
vt 0.3147 0.9699 0.0000
vt 0.2233 0.2543 0.0000
vt 0.2808 0.2543 0.0000
vt 0.9817 0.1261 0.0000
vt 0.9541 0.2869 0.0000
vt 0.9062 0.4297 0.0000
vt 0.8690 0.5146 0.0000
vt 0.9754 0.0213 0.0000
vt 0.9754 0.0788 0.0000
vt 0.2727 0.5814 0.0000
vt 0.2356 0.6663 0.0000
vt 0.1876 0.8090 0.0000
vt 0.1600 0.9699 0.0000
vt 0.2233 0.4091 0.0000
vt 0.2808 0.4091 0.0000
# 222 texture coords

g Box001
usemtl wire_088144225
s 2
f 1/1/1 2/2/1 3/3/1 4/4/1 
f 4/4/1 3/3/1 5/5/2 6/6/3 
f 6/6/3 5/5/2 7/7/4 8/8/4 
f 2/2/1 9/9/1 10/10/1 3/3/1 
f 3/3/1 10/10/1 11/11/2 5/5/2 
f 5/5/2 11/11/2 12/12/4 7/7/4 
f 9/9/1 13/13/1 14/14/1 10/10/1 
f 10/10/1 14/14/1 15/15/2 11/11/2 
f 11/11/2 15/15/2 16/16/4 12/12/4 
f 13/13/1 17/17/1 18/18/1 14/14/1 
f 14/14/1 18/18/1 19/19/2 15/15/2 
f 15/15/2 19/19/2 20/20/4 16/16/4 
f 17/17/1 21/21/5 22/22/6 18/18/1 
f 18/18/1 22/22/6 23/23/7 19/19/2 
f 19/19/2 23/23/7 24/24/8 20/20/4 
f 21/21/5 25/25/1 26/26/9 22/22/6 
f 22/22/6 26/26/9 27/27/10 23/23/7 
f 23/23/7 27/27/10 28/28/11 24/24/8 
s 4
f 29/29/12 30/30/13 31/31/14 32/32/15 
f 30/33/13 33/34/16 34/35/17 31/36/14 
f 33/34/16 35/37/18 36/38/18 34/35/17 
f 32/32/15 31/31/14 37/39/19 38/40/20 
f 31/36/14 34/35/17 39/41/17 37/42/19 
f 34/35/17 36/38/18 40/43/18 39/41/17 
f 38/44/20 37/42/19 41/45/21 42/46/22 
f 37/42/19 39/41/17 43/47/23 41/45/21 
f 39/41/17 40/43/18 44/48/18 43/47/23 
f 42/46/22 41/45/21 45/49/24 46/50/25 
f 41/45/21 43/47/23 47/51/26 45/49/24 
f 43/47/23 44/48/18 48/52/18 47/51/26 
f 46/50/25 45/49/24 49/53/27 50/54/28 
f 45/49/24 47/51/26 51/55/29 49/53/27 
f 47/51/26 48/52/18 52/56/30 51/55/29 
f 50/54/28 49/53/27 53/57/31 54/58/32 
f 49/53/27 51/55/29 55/59/33 53/57/31 
f 51/55/29 52/56/30 56/60/34 55/59/33 
s 8
f 1/61/35 4/62/36 30/63/37 29/64/35 
f 4/62/36 6/65/38 33/66/39 30/63/37 
f 6/65/38 8/67/35 35/68/35 33/66/39 
s 16
f 57/69/40 58/70/41 59/71/41 60/72/40 
f 58/70/41 61/73/42 62/74/42 59/71/41 
f 61/73/42 63/75/43 64/76/43 62/74/42 
f 16/77/44 20/78/44 48/79/44 44/80/44 
f 20/78/44 24/81/44 52/82/44 48/79/44 
f 24/81/44 28/83/44 56/84/44 52/82/44 
s 32
f 28/85/45 27/86/46 55/87/47 56/88/45 
f 27/86/46 26/89/48 53/90/49 55/87/47 
f 26/91/48 25/92/50 54/93/51 53/94/49 
s off
f 8/8/52 7/7/52 65/95/52 66/96/52 
f 7/7/52 12/12/52 67/97/52 65/95/52 
f 12/12/52 16/16/52 68/98/52 67/97/52 
f 16/99/53 44/100/53 69/101/53 68/102/53 
f 44/48/54 40/43/54 70/103/54 69/104/54 
f 40/43/54 36/38/54 71/105/54 70/103/54 
f 36/38/54 35/37/54 72/106/54 71/105/54 
f 35/68/55 8/67/55 66/107/55 72/108/55 
f 66/96/1 65/95/1 58/109/1 57/110/1 
f 65/95/1 67/97/1 61/111/1 58/109/1 
f 67/97/1 68/98/1 63/112/1 61/111/1 
f 68/113/56 69/114/56 64/76/56 63/75/56 
f 69/104/12 70/103/12 62/115/12 64/116/12 
f 70/103/12 71/105/12 59/117/12 62/115/12 
f 71/105/12 72/106/12 60/118/12 59/117/12 
f 72/108/35 66/107/35 57/119/35 60/120/35 
s 2
f 1/1/1 73/121/1 74/122/1 2/2/1 
f 73/121/1 75/123/57 76/124/58 74/122/1 
f 75/123/57 77/125/59 78/126/59 76/124/58 
f 2/2/1 74/122/1 79/127/1 9/9/1 
f 74/122/1 76/124/58 80/128/58 79/127/1 
f 76/124/58 78/126/59 81/129/59 80/128/58 
f 9/9/1 79/127/1 82/130/1 13/13/1 
f 79/127/1 80/128/58 83/131/58 82/130/1 
f 80/128/58 81/129/59 84/132/59 83/131/58 
f 13/13/1 82/130/1 85/133/1 17/17/1 
f 82/130/1 83/131/58 86/134/58 85/133/1 
f 83/131/58 84/132/59 87/135/59 86/134/58 
f 17/17/1 85/133/1 88/136/60 21/21/5 
f 85/133/1 86/134/58 89/137/61 88/136/60 
f 86/134/58 87/135/59 90/138/62 89/137/61 
f 21/21/5 88/136/60 91/139/63 25/25/1 
f 88/136/60 89/137/61 92/140/64 91/139/63 
f 89/137/61 90/138/62 93/141/65 92/140/64 
s 4
f 29/142/12 32/143/15 94/144/66 95/145/67 
f 95/146/67 94/147/66 96/148/68 97/149/69 
f 97/149/69 96/148/68 98/150/70 99/151/70 
f 32/143/15 38/152/20 100/153/71 94/144/66 
f 94/147/66 100/154/71 101/155/68 96/148/68 
f 96/148/68 101/155/68 102/156/70 98/150/70 
f 38/44/20 42/46/22 103/157/72 100/154/71 
f 100/154/71 103/157/72 104/158/73 101/155/68 
f 101/155/68 104/158/73 105/159/70 102/156/70 
f 42/46/22 46/50/25 106/160/74 103/157/72 
f 103/157/72 106/160/74 107/161/75 104/158/73 
f 104/158/73 107/161/75 108/162/70 105/159/70 
f 46/50/25 50/54/28 109/163/76 106/160/74 
f 106/160/74 109/163/76 110/164/77 107/161/75 
f 107/161/75 110/164/77 111/165/78 108/162/70 
f 50/54/28 54/58/32 112/166/79 109/163/76 
f 109/163/76 112/166/79 113/167/80 110/164/77 
f 110/164/77 113/167/80 114/168/81 111/165/78 
s 8
f 1/61/35 29/64/35 95/169/82 73/170/83 
f 73/170/83 95/169/82 97/171/84 75/172/85 
f 75/172/85 97/171/84 99/173/35 77/174/35 
s 16
f 115/175/86 116/176/86 117/177/87 118/178/87 
f 118/178/87 117/177/87 119/179/88 120/180/88 
f 120/180/88 119/179/88 121/181/89 122/182/89 
f 84/183/90 105/184/90 108/185/90 87/186/90 
f 87/186/90 108/185/90 111/187/90 90/188/90 
f 90/188/90 111/187/90 114/189/90 93/190/90 
s 32
f 93/191/91 114/192/91 113/193/92 92/194/93 
f 92/194/93 113/193/92 112/195/94 91/196/95 
f 91/196/95 112/195/94 54/93/51 25/92/50 
s off
f 77/125/96 123/197/96 124/198/96 78/126/96 
f 78/126/96 124/198/96 125/199/96 81/129/96 
f 81/129/96 125/199/96 126/200/96 84/132/96 
f 84/201/97 126/202/97 127/203/97 105/204/97 
f 105/159/98 127/205/98 128/206/98 102/156/98 
f 102/156/98 128/206/98 129/207/98 98/150/98 
f 98/150/98 129/207/98 130/208/98 99/151/98 
f 99/173/99 130/209/99 123/210/99 77/174/99 
f 123/197/1 115/211/1 118/212/1 124/198/1 
f 124/198/1 118/212/1 120/213/1 125/199/1 
f 125/199/1 120/213/1 122/214/1 126/200/1 
f 126/215/100 122/182/100 121/181/100 127/216/100 
f 127/205/12 121/217/12 119/218/12 128/206/12 
f 128/206/12 119/218/12 117/219/12 129/207/12 
f 129/207/12 117/219/12 116/220/12 130/208/12 
f 130/209/35 116/221/35 115/222/35 123/210/35 
# 128 polygons

